<svg width="24" height="25" viewBox="0 0 24 25" fill="none" xmlns="http://www.w3.org/2000/svg">
<path d="M23 17.8716C23 21.1816 20.31 23.8716 17 23.8716V22.3716C19.5 22.3716 21.5 20.3716 21.5 17.8716H23ZM0.999995 7.87158C0.999995 4.56158 3.69 1.87158 7 1.87158V3.37158C4.5 3.37158 2.49999 5.37158 2.49999 7.87158H0.999995ZM8 5.19158L3.41 9.79158C0.189995 13.0116 0.189995 18.2416 3.41 21.4616C6.63 24.6816 11.86 24.6816 15.08 21.4616L22.15 14.3716C22.64 13.9016 22.64 13.1116 22.15 12.6216C22.0339 12.5052 21.8959 12.4128 21.7441 12.3498C21.5922 12.2868 21.4294 12.2543 21.265 12.2543C21.1006 12.2543 20.9378 12.2868 20.7859 12.3498C20.634 12.4128 20.4961 12.5052 20.38 12.6216L15.96 17.0416L15.25 16.3316L21.79 9.79158C22.28 9.30158 22.28 8.51158 21.79 8.02158C21.3 7.53158 20.5 7.53158 20 8.02158L14.19 13.8716L13.5 13.1416L20.37 6.25158C20.86 5.76158 20.86 4.97158 20.37 4.48158C19.88 3.99158 19.09 3.99158 18.6 4.48158L11.71 11.3716L11 10.6716L16.5 5.19158C17 4.70158 17 3.91158 16.5 3.42158C16 2.93158 15.22 2.93158 14.73 3.42158L7.11 11.0416C7.70726 11.811 8.00328 12.7718 7.94252 13.7439C7.88176 14.716 7.46841 15.6326 6.78 16.3216L6.07 15.6116C6.6318 15.0491 6.94736 14.2866 6.94736 13.4916C6.94736 12.6966 6.6318 11.9341 6.07 11.3716L5.72 11.0216L9.79 6.95158C10.28 6.46158 10.28 5.67158 9.79 5.18158C9.29 4.70158 8.5 4.70158 8 5.19158Z" fill="#ED6262"/>
</svg>
