<svg width="24" height="25" viewBox="0 0 24 25" fill="none" xmlns="http://www.w3.org/2000/svg">
<path d="M12 4.87158C13.0609 4.87158 14.0783 5.29301 14.8284 6.04315C15.5786 6.7933 16 7.81072 16 8.87158C16 9.93245 15.5786 10.9499 14.8284 11.7C14.0783 12.4502 13.0609 12.8716 12 12.8716C10.9391 12.8716 9.92172 12.4502 9.17157 11.7C8.42143 10.9499 8 9.93245 8 8.87158C8 7.81072 8.42143 6.7933 9.17157 6.04315C9.92172 5.29301 10.9391 4.87158 12 4.87158ZM12 14.8716C16.42 14.8716 20 16.6616 20 18.8716V20.8716H4V18.8716C4 16.6616 7.58 14.8716 12 14.8716Z" class="icon-fill"/>
</svg>
