<svg width="24" height="25" viewBox="0 0 24 25" fill="none" xmlns="http://www.w3.org/2000/svg">
<path d="M10 2.87158H14C14.5304 2.87158 15.0391 3.0823 15.4142 3.45737C15.7893 3.83244 16 4.34115 16 4.87158V6.87158H20C20.5304 6.87158 21.0391 7.0823 21.4142 7.45737C21.7893 7.83244 22 8.34115 22 8.87158V19.8716C22 20.402 21.7893 20.9107 21.4142 21.2858C21.0391 21.6609 20.5304 21.8716 20 21.8716H4C3.46957 21.8716 2.96086 21.6609 2.58579 21.2858C2.21071 20.9107 2 20.402 2 19.8716V8.87158C2 7.76158 2.89 6.87158 4 6.87158H8V4.87158C8 3.76158 8.89 2.87158 10 2.87158ZM14 6.87158V4.87158H10V6.87158H14Z" fill="#45C5EB"/>
</svg>
