<svg width="24" height="24" viewBox="0 0 24 24" fill="none" xmlns="http://www.w3.org/2000/svg">
<path d="M11.8755 6.375L13.6425 10.857L18.1245 12.6255L13.6425 14.3925L11.8755 18.8745L10.107 14.3925L5.625 12.6255L10.107 10.857L11.8755 6.375Z" />
<path d="M11.8755 5.7495C12.1305 5.7495 12.363 5.907 12.456 6.1455L14.124 10.3755L18.354 12.0435C18.4704 12.0898 18.5702 12.1699 18.6405 12.2735C18.7108 12.3772 18.7484 12.4995 18.7484 12.6248C18.7484 12.75 18.7108 12.8723 18.6405 12.976C18.5702 13.0796 18.4704 13.1597 18.354 13.206L14.124 14.874L12.456 19.104C12.4097 19.2204 12.3296 19.3202 12.226 19.3905C12.1223 19.4608 12 19.4984 11.8748 19.4984C11.7495 19.4984 11.6272 19.4608 11.5235 19.3905C11.4199 19.3202 11.3398 19.2204 11.2935 19.104L9.6255 14.874L5.3955 13.206C5.27912 13.1597 5.17931 13.0796 5.10899 12.976C5.03867 12.8723 5.00108 12.75 5.00108 12.6248C5.00108 12.4995 5.03867 12.3772 5.10899 12.2735C5.17931 12.1699 5.27912 12.0898 5.3955 12.0435L9.6255 10.3755L11.2935 6.1455C11.3401 6.02906 11.4203 5.92918 11.524 5.85863C11.6277 5.78808 11.7501 5.75008 11.8755 5.7495ZM11.8755 8.079L10.689 11.085C10.6573 11.1646 10.6097 11.237 10.5491 11.2976C10.4885 11.3582 10.4161 11.4058 10.3365 11.4375L7.329 12.6225L10.3365 13.8105C10.416 13.842 10.4883 13.8894 10.5489 13.9497C10.6095 14.0101 10.6571 14.0821 10.689 14.1615L11.874 17.1705L13.062 14.1615C13.0937 14.0823 13.1411 14.0103 13.2015 13.95C13.2618 13.8896 13.3338 13.8422 13.413 13.8105L16.422 12.624L13.413 11.4375C13.3336 11.4056 13.2616 11.358 13.2012 11.2974C13.1409 11.2368 13.0935 11.1645 13.062 11.085L11.8755 8.079ZM6.2505 4.5L7.0455 6.204L8.7495 6.999L7.0455 7.7955L6.2505 9.4995L5.4555 7.7955L3.75 7.0005L5.454 6.2055L6.2505 4.5Z" />
</svg>
